<?xml version="1.0" encoding="utf-8"?>
<!-- Generator: Adobe Illustrator 24.2.0, SVG Export Plug-In . SVG Version: 6.00 Build 0)  -->
<svg version="1.1" id="Layer_1" xmlns="http://www.w3.org/2000/svg" xmlns:xlink="http://www.w3.org/1999/xlink" x="0px" y="0px"
	 width="192" height="60" viewBox="0 0 2498.95 841.89" style="enable-background:new 0 0 320 100;" xml:space="preserve">
<style type="text/css">
	.st0{fill:url(#SVGID_1_);}
	.st1{fill:url(#SVGID_2_);}
	.st2{fill:url(#SVGID_3_);}
	.st3{fill:#FFFFFF;}
	.st4{font-family:'HackNerdFontComplete-Bold';}
	.st5{font-size:250.567px;}
</style>
<g>
	<linearGradient id="SVGID_1_" gradientUnits="userSpaceOnUse" x1="229.0031" y1="655.9022" x2="229.0031" y2="253.4118">
		<stop  offset="0" style="stop-color:#A256A2"/>
		<stop  offset="0.8036" style="stop-color:#7A3675"/>
		<stop  offset="1" style="stop-color:#712F6C"/>
	</linearGradient>
	<path class="st0" d="M265,330.72c-31.46-24.01-66.66-43.15-100.45-64.05c-44.04-27.24-82-8.53-108.96,20.28
		c-19.85,21.2-32.29,46.48-38.87,74.65c-6.47,27.69,6.24,47.31,34.24,52.39c56.11,10.18,110.62,25.6,162.66,49.15
		c90.21,40.82,162.79,102.55,218.42,184.37c1.97,2.9,4.25,5.6,6.39,8.39c1.5-0.32,3.01-0.64,4.51-0.95
		c-0.75-10.32-0.66-20.79-2.39-30.94C420.02,503.55,362.14,404.87,265,330.72z M300.01,421.38c-6.12,5.24-15.09,4.32-21.67-2.98
		c-41.46-46.03-92.21-78.62-148.61-103.07c-11.03-4.78-14.91-11.71-11.47-20.25c3.5-8.71,11.82-11.04,23.31-6.32
		c38.39,15.78,74.14,36.31,106.59,62.08c18.95,15.06,36.35,32.07,54.44,48.21C306.59,408.39,306.13,416.14,300.01,421.38z"/>
	<linearGradient id="SVGID_2_" gradientUnits="userSpaceOnUse" x1="449.1806" y1="619.2879" x2="449.1806" y2="212.8122">
		<stop  offset="0" style="stop-color:#A256A2"/>
		<stop  offset="0.8036" style="stop-color:#7A3675"/>
		<stop  offset="1" style="stop-color:#712F6C"/>
	</linearGradient>
	<path class="st1" d="M559.45,378.44c-51.87-68.45-119.1-117.59-195.02-155.9c-17.7-8.93-36.25-12.18-55.77-7.77
		c-26.02,5.87-44.64,21.38-57.94,44.19c-4.03,6.92-2.53,10.07,3.57,15.1c31.76,26.19,63.65,52.33,93.94,80.17
		c15.6,14.34,27.65,32.48,41.98,48.3c5.25,5.8,11.76,11.47,18.86,14.44c81.21,34.01,147.2,87.15,200.13,157.14
		c10.21,13.51,21.34,26.33,32.13,39.4c1.74,2.11,3.92,3.86,5.9,5.78c0.88-0.3,1.77-0.59,2.65-0.89c-0.7-7.03-1.19-14.09-2.15-21.08
		C636.7,516.95,608.71,443.44,559.45,378.44z"/>
	<linearGradient id="SVGID_3_" gradientUnits="userSpaceOnUse" x1="645.7111" y1="620.8659" x2="645.7111" y2="219.3687">
		<stop  offset="0" style="stop-color:#A256A2"/>
		<stop  offset="0.8036" style="stop-color:#7A3675"/>
		<stop  offset="1" style="stop-color:#712F6C"/>
	</linearGradient>
	<path class="st2" d="M826.81,612.75c-1.49-15.36-2.43-30.92-5.77-45.92C790.88,431.14,712.95,330.3,594.75,259.42
		c-20.5-12.29-41.95-23.05-63.27-33.9c-23.43-11.93-44.78-5.19-66.89,9c13.42,10.52,25.96,20.01,38.13,29.95
		c60,49,106.33,108.76,141.16,177.85c4.4,8.73,11.89,17.17,20.05,22.53c56.17,36.87,102.59,83.46,141.28,138.1
		c3.4,4.81,6.94,9.57,10.88,13.93c1.7,1.88,4.59,2.69,6.94,3.99C824.37,618.15,827.05,615.31,826.81,612.75z"/>
</g>
<g>
	<text id="Motionclaw" transform="matrix(1 0 0 1 886.7269 366.3896)" class="st3 st4 st5">Motionclaw</text>
	<text id="Labs" transform="matrix(1 0 0 1 886.7269 620.3281)" class="st3 st4 st5">Labs</text>
</g>
</svg>
