<svg width="192" height="60" viewBox="0 0 1207 300" fill="none" xmlns="http://www.w3.org/2000/svg">
<path d="M185.416 33.1809H45.2968V143.12C83.8315 97.0931 131.56 59.6444 185.416 33.1809V33.1809Z" fill="url(#paint0_linear_19_17)"/>
<path fill-rule="evenodd" clip-rule="evenodd" d="M320.299 0C320.299 0 97.5819 29.0809 0.209149 249.721C-0.352905 250.345 0.227334 249.744 1.83557 248.08C6.99622 242.741 22.7421 226.449 45.2968 204.496V267.058H54.9974C144.296 153.358 267.293 119.624 307.22 111.349V96.4093V33.1809H253.697C277.007 18.7661 299.606 7.14784 320.299 0ZM307.22 267.058H231.781C211.744 282.618 197.41 294.681 193.244 298.187C192.153 299.105 191.759 299.436 192.143 299.09C198.802 287.418 205.99 276.771 213.557 267.058H94.5734C157.433 209.773 240.392 141.834 307.22 113.998V121.214V192.275C359.382 167.472 404.153 166.262 404.153 166.262C375.794 172.895 340.672 191.737 307.22 213.225V267.058ZM213.603 267C241.91 230.689 275.514 207.453 306.561 192.589C306.549 191.185 306.648 189.914 306.769 188.348L306.769 188.348L306.769 188.347C306.844 187.378 306.928 186.296 307 185C247.509 212.569 232.732 230.215 204.803 263.567C203.861 264.693 202.903 265.837 201.927 267H213.603Z" fill="url(#paint1_linear_19_17)"/>
<path d="M523.204 127.084C528.076 127.084 532.407 128.089 536.196 130.1C540.063 132.033 543.079 135.049 545.244 139.148C547.487 143.247 548.608 148.544 548.608 155.04V191H526.568V158.636C526.568 154.151 525.718 150.903 524.016 148.892C522.315 146.804 519.995 145.76 517.056 145.76C514.968 145.76 513.074 146.263 511.372 147.268C509.671 148.273 508.356 149.82 507.428 151.908C506.5 153.919 506.036 156.548 506.036 159.796V191H483.996V158.636C483.996 154.151 483.146 150.903 481.444 148.892C479.82 146.804 477.5 145.76 474.484 145.76C472.319 145.76 470.386 146.263 468.684 147.268C467.06 148.273 465.746 149.82 464.74 151.908C463.812 153.919 463.348 156.548 463.348 159.796V191H441.308V128.128H462.304V145.644L458.128 140.656C460.448 136.171 463.619 132.807 467.64 130.564C471.662 128.244 476.147 127.084 481.096 127.084C486.742 127.084 491.691 128.553 495.944 131.492C500.275 134.353 503.175 138.839 504.644 144.948L497.452 143.44C499.695 138.336 503.059 134.353 507.544 131.492C512.107 128.553 517.327 127.084 523.204 127.084ZM594.864 192.044C587.982 192.044 581.872 190.652 576.536 187.868C571.2 185.084 566.986 181.256 563.892 176.384C560.876 171.435 559.368 165.789 559.368 159.448C559.368 153.107 560.876 147.5 563.892 142.628C566.986 137.756 571.2 133.967 576.536 131.26C581.872 128.476 587.982 127.084 594.864 127.084C601.747 127.084 607.856 128.476 613.192 131.26C618.606 133.967 622.82 137.756 625.836 142.628C628.852 147.5 630.36 153.107 630.36 159.448C630.36 165.789 628.852 171.435 625.836 176.384C622.82 181.256 618.606 185.084 613.192 187.868C607.856 190.652 601.747 192.044 594.864 192.044ZM594.864 174.528C597.416 174.528 599.659 173.948 601.592 172.788C603.603 171.628 605.188 169.927 606.348 167.684C607.508 165.364 608.088 162.619 608.088 159.448C608.088 156.277 607.508 153.609 606.348 151.444C605.188 149.201 603.603 147.5 601.592 146.34C599.659 145.18 597.416 144.6 594.864 144.6C592.39 144.6 590.147 145.18 588.136 146.34C586.203 147.5 584.618 149.201 583.38 151.444C582.22 153.609 581.64 156.277 581.64 159.448C581.64 162.619 582.22 165.364 583.38 167.684C584.618 169.927 586.203 171.628 588.136 172.788C590.147 173.948 592.39 174.528 594.864 174.528ZM668.642 192.044C660.599 192.044 654.335 190.072 649.85 186.128C645.365 182.107 643.122 176.075 643.122 168.032V114.092H665.162V167.8C665.162 170.043 665.781 171.821 667.018 173.136C668.255 174.373 669.841 174.992 671.774 174.992C674.403 174.992 676.646 174.335 678.502 173.02L683.954 188.448C682.098 189.685 679.817 190.575 677.11 191.116C674.403 191.735 671.581 192.044 668.642 192.044ZM633.958 146.92V130.448H679.546V146.92H633.958ZM692.453 191V128.128H714.493V191H692.453ZM703.473 121.168C699.452 121.168 696.204 120.047 693.729 117.804C691.254 115.561 690.017 112.777 690.017 109.452C690.017 106.127 691.254 103.343 693.729 101.1C696.204 98.8573 699.452 97.736 703.473 97.736C707.494 97.736 710.742 98.8187 713.217 100.984C715.692 103.072 716.929 105.779 716.929 109.104C716.929 112.584 715.692 115.484 713.217 117.804C710.82 120.047 707.572 121.168 703.473 121.168ZM760.368 192.044C753.486 192.044 747.376 190.652 742.04 187.868C736.704 185.084 732.49 181.256 729.396 176.384C726.38 171.435 724.872 165.789 724.872 159.448C724.872 153.107 726.38 147.5 729.396 142.628C732.49 137.756 736.704 133.967 742.04 131.26C747.376 128.476 753.486 127.084 760.368 127.084C767.251 127.084 773.36 128.476 778.696 131.26C784.11 133.967 788.324 137.756 791.34 142.628C794.356 147.5 795.864 153.107 795.864 159.448C795.864 165.789 794.356 171.435 791.34 176.384C788.324 181.256 784.11 185.084 778.696 187.868C773.36 190.652 767.251 192.044 760.368 192.044ZM760.368 174.528C762.92 174.528 765.163 173.948 767.096 172.788C769.107 171.628 770.692 169.927 771.852 167.684C773.012 165.364 773.592 162.619 773.592 159.448C773.592 156.277 773.012 153.609 771.852 151.444C770.692 149.201 769.107 147.5 767.096 146.34C765.163 145.18 762.92 144.6 760.368 144.6C757.894 144.6 755.651 145.18 753.64 146.34C751.707 147.5 750.122 149.201 748.884 151.444C747.724 153.609 747.144 156.277 747.144 159.448C747.144 162.619 747.724 165.364 748.884 167.684C750.122 169.927 751.707 171.628 753.64 172.788C755.651 173.948 757.894 174.528 760.368 174.528ZM847.022 127.084C851.894 127.084 856.302 128.089 860.246 130.1C864.19 132.033 867.283 135.049 869.526 139.148C871.846 143.247 873.006 148.544 873.006 155.04V191H850.966V158.636C850.966 154.151 850.038 150.903 848.182 148.892C846.403 146.804 843.89 145.76 840.642 145.76C838.322 145.76 836.195 146.301 834.262 147.384C832.329 148.389 830.821 149.975 829.738 152.14C828.655 154.305 828.114 157.128 828.114 160.608V191H806.074V128.128H827.07V145.992L823.01 140.772C825.407 136.209 828.694 132.807 832.87 130.564C837.046 128.244 841.763 127.084 847.022 127.084Z" fill="white"/>
<path d="M956.388 192.044C949.428 192.044 943.202 190.652 937.712 187.868C932.298 185.084 928.045 181.256 924.952 176.384C921.858 171.435 920.312 165.789 920.312 159.448C920.312 153.107 921.858 147.5 924.952 142.628C928.045 137.756 932.298 133.967 937.712 131.26C943.202 128.476 949.428 127.084 956.388 127.084C963.502 127.084 969.65 128.592 974.832 131.608C980.013 134.624 983.686 138.877 985.852 144.368L968.8 153.068C967.33 150.129 965.513 148.003 963.348 146.688C961.182 145.296 958.824 144.6 956.272 144.6C953.72 144.6 951.4 145.18 949.312 146.34C947.224 147.5 945.561 149.201 944.324 151.444C943.164 153.609 942.584 156.277 942.584 159.448C942.584 162.696 943.164 165.441 944.324 167.684C945.561 169.927 947.224 171.628 949.312 172.788C951.4 173.948 953.72 174.528 956.272 174.528C958.824 174.528 961.182 173.871 963.348 172.556C965.513 171.164 967.33 168.999 968.8 166.06L985.852 174.76C983.686 180.251 980.013 184.504 974.832 187.52C969.65 190.536 963.502 192.044 956.388 192.044ZM993.924 191V104.928H1015.96V191H993.924ZM1068.68 191V179.284L1067.17 176.384V154.808C1067.17 151.328 1066.09 148.66 1063.93 146.804C1061.84 144.871 1058.47 143.904 1053.83 143.904C1050.82 143.904 1047.76 144.407 1044.67 145.412C1041.58 146.34 1038.95 147.655 1036.78 149.356L1029.36 134.392C1032.92 132.072 1037.17 130.293 1042.12 129.056C1047.15 127.741 1052.13 127.084 1057.08 127.084C1067.29 127.084 1075.18 129.443 1080.75 134.16C1086.39 138.8 1089.21 146.108 1089.21 156.084V191H1068.68ZM1050.12 192.044C1045.1 192.044 1040.84 191.193 1037.36 189.492C1033.88 187.791 1031.21 185.471 1029.36 182.532C1027.58 179.593 1026.69 176.307 1026.69 172.672C1026.69 168.805 1027.66 165.48 1029.59 162.696C1031.6 159.835 1034.66 157.669 1038.75 156.2C1042.85 154.653 1048.15 153.88 1054.65 153.88H1069.49V165.364H1057.66C1054.11 165.364 1051.59 165.944 1050.12 167.104C1048.73 168.264 1048.03 169.811 1048.03 171.744C1048.03 173.677 1048.77 175.224 1050.24 176.384C1051.71 177.544 1053.72 178.124 1056.27 178.124C1058.67 178.124 1060.83 177.544 1062.77 176.384C1064.78 175.147 1066.25 173.291 1067.17 170.816L1070.19 178.936C1069.03 183.267 1066.75 186.553 1063.35 188.796C1060.02 190.961 1055.61 192.044 1050.12 192.044ZM1116.96 191L1094.57 128.128H1115.45L1133.2 180.676H1123.22L1141.67 128.128H1160.46L1178.21 180.676H1168.46L1186.79 128.128H1206.16L1183.77 191H1162.43L1147.35 147.5H1153.85L1138.3 191H1116.96Z" fill="url(#paint2_linear_19_17)"/>
<defs>
<linearGradient id="paint0_linear_19_17" x1="152.128" y1="-35.2389" x2="47.9548" y2="81.3715" gradientUnits="userSpaceOnUse">
<stop offset="0.211458" stop-color="#E85CFF"/>
<stop offset="0.841667" stop-color="#BE007E"/>
<stop offset="1" stop-color="#770450"/>
</linearGradient>
<linearGradient id="paint1_linear_19_17" x1="367.349" y1="66.091" x2="205.398" y2="214.414" gradientUnits="userSpaceOnUse">
<stop offset="0.211458" stop-color="#E85CFF"/>
<stop offset="0.841667" stop-color="#BE007E"/>
<stop offset="1" stop-color="#770450"/>
</linearGradient>
<linearGradient id="paint2_linear_19_17" x1="1137.34" y1="-8.75001" x2="1023.19" y2="196.748" gradientUnits="userSpaceOnUse">
<stop stop-color="white"/>
<stop offset="0.388542" stop-color="#E85CFF"/>
<stop offset="1" stop-color="#BE007E"/>
</linearGradient>
</defs>
</svg>
